#!OML:ASF E:\Style4\Style4.ASF
:FULLY-SPECIFIED
:DEGREES
2215
root 0.684294 17.064 -1.74664 11.5805 -12.4852 1.63005
lowerback 21.5961 2.17828 -0.43225
upperback 5.57491 2.71528 0.489204
thorax -6.01319 1.29726 0.0649773
lowerneck -3.25326 -5.04209 -4.86006
upperneck -9.31531 -6.4165 5.22922
head -2.06024 -3.19274 2.55213
rclavicle 6.36111e-015 -1.19271e-014
rhumerus 24.0987 -19.1082 -32.1363
rradius 38.3651
rwrist -54.0799
rhand -14.2912 12.8929
rfingers 7.12502
rthumb 11.8483 -16.7518
lclavicle 6.36111e-015 -1.19271e-014
lhumerus 28.9559 1.72588 42.5588
lradius 55.1514
lwrist 58.2117
lhand -1.82396 33.0287
lfingers 7.12502
lthumb 23.8422 61.569
rfemur -41.9914 0.17401 14.6285
rtibia 49.2087
rfoot -19.724 -3.92389
rtoes -15.5874
lfemur -39.5173 9.95144 -24.1158
ltibia 50.7639
lfoot -23.7483 10.0198
ltoes -10.403
2216
root 0.686962 17.0383 -1.76349 11.6274 -12.3525 1.59702
lowerback 21.653 2.16429 -0.342914
upperback 5.66926 2.71328 0.472066
thorax -5.93523 1.29529 -0.00342698
lowerneck -3.44539 -5.01081 -4.83617
upperneck -9.29139 -6.36978 5.18628
head -2.02308 -3.1674 2.5261
rclavicle 4.25399e-014 -1.11319e-014
rhumerus 24.6135 -18.7797 -32.5142
rradius 38.4439
rwrist -54.2854
rhand -14.1557 12.8168
rfingers 7.12502
rthumb 11.9789 -16.8204
lclavicle 4.25399e-014 -1.11319e-014
lhumerus 29.589 1.25003 42.8878
lradius 55.3843
lwrist 58.4108
lhand -1.11687 33.0718
lfingers 7.12502
lthumb 24.5202 61.5219
rfemur -42.3333 0.0620774 14.6971
rtibia 49.6557
rfoot -19.8221 -3.97309
rtoes -15.8276
lfemur -39.9081 9.99748 -24.1176
ltibia 51.2196
lfoot -23.8158 9.89313
ltoes -10.4894
2217
root 0.689558 17.014 -1.78141 11.6159 -12.2526 1.66356
lowerback 21.7608 2.15675 -0.419342
upperback 5.73059 2.68345 0.443233
thorax -5.92621 1.28109 0.0145138
lowerneck -3.53503 -4.94518 -4.77053
upperneck -9.22967 -6.28582 5.08607
head -1.99637 -3.12434 2.47675
rclavicle 2.46493e-014 -8.74653e-015
rhumerus 25.2469 -18.3983 -32.9818
rradius 38.4615
rwrist -54.3875
rhand -14.0756 12.7478
rfingers 7.12502
rthumb 12.0562 -16.8849
lclavicle 2.46493e-014 -8.74653e-015
lhumerus 30.1448 0.683184 43.0707
lradius 55.6333
lwrist 58.8243
lhand -0.762699 33.1687
lfingers 7.12502
lthumb 24.8596 61.5724
rfemur -42.6464 -0.0527896 14.6507
rtibia 50.0975
rfoot -19.9419 -3.97999
rtoes -15.9516
lfemur -40.2402 10.0118 -24.2215
ltibia 51.6523
lfoot -23.8634 9.8256
ltoes -10.7126
2218
root 0.691074 16.9908 -1.80005 11.591 -12.1837 1.68873
lowerback 21.7945 2.16222 -0.571393
upperback 5.82242 2.65855 0.473175
thorax -5.852 1.26995 0.14059
lowerneck -3.4123 -4.84044 -4.80184
upperneck -9.28297 -6.15155 5.03895
head -2.04313 -3.05591 2.47367
rclavicle -3.1408e-014 0
rhumerus 25.8405 -17.8882 -33.325
rradius 38.5735
rwrist -54.4742
rhand -14.0911 12.8341
rfingers 7.12502
rthumb 12.0413 -16.7995
lclavicle -3.1408e-014 0
lhumerus 30.5656 0.150251 43.2479
lradius 55.981
lwrist 59.3222
lhand -0.769728 33.2737
lfingers 7.12502
lthumb 24.8529 61.6783
rfemur -42.9299 -0.137972 14.6483
rtibia 50.5253
rfoot -20.0568 -3.91985
rtoes -15.6214
lfemur -40.5444 10.0494 -24.2628
ltibia 52.0756
lfoot -23.9718 9.66018
ltoes -10.6016
2219
root 0.692608 16.9666 -1.81694 11.5936 -12.085 1.64739
lowerback 21.7255 2.17881 -0.551092
upperback 6.02662 2.68331 0.489133
thorax -5.59502 1.28153 0.146724
lowerneck -3.4723 -4.80348 -4.86439
upperneck -9.4499 -6.09394 5.07332
head -2.08808 -3.02524 2.49941
rclavicle -3.97569e-015 -1.43125e-014
rhumerus 26.3666 -17.6435 -33.6397
rradius 38.7593
rwrist -54.4475
rhand -14.0281 12.7256
rfingers 7.12502
rthumb 12.102 -16.9044
lclavicle -3.97569e-015 -1.43125e-014
lhumerus 31.2471 -0.400925 43.3659
lradius 56.3406
lwrist 59.8111
lhand -1.08638 33.3473
lfingers 7.12502
lthumb 24.5494 61.7935
rfemur -43.2164 -0.232175 14.7274
rtibia 50.9565
rfoot -20.1475 -3.97855
rtoes -15.8337
lfemur -40.8737 10.0814 -24.2395
ltibia 52.4941
lfoot -24.0437 9.60772
ltoes -10.6967
2220
root 0.693808 16.9425 -1.83416 11.6228 -11.9961 1.61141
lowerback 21.7789 2.18888 -0.449523
upperback 6.19223 2.7114 0.439725
thorax -5.43608 1.29425 0.0307461
lowerneck -3.80682 -4.80971 -4.81268
upperneck -9.47846 -6.08879 5.07375
head -2.04036 -3.0216 2.47937
rclavicle -3.77691e-014 3.29983e-014
rhumerus 26.9478 -17.4986 -34.0227
rradius 38.8224
rwrist -54.3267
rhand -13.5964 12.4018
rfingers 7.12502
rthumb 12.5182 -17.2032
lclavicle -3.77691e-014 3.29983e-014
lhumerus 31.9869 -0.940383 43.3977
lradius 56.5641
lwrist 59.9226
lhand -0.862344 33.0825
lfingers 7.12502
lthumb 24.7641 61.4994
rfemur -43.5278 -0.28939 14.7818
rtibia 51.3773
rfoot -20.2479 -3.9728
rtoes -15.6164
lfemur -41.2282 10.0821 -24.2146
ltibia 52.9132
lfoot -24.1155 9.57476
ltoes -10.826
2221
root 0.695236 16.9173 -1.85423 11.6538 -11.9275 1.65831
lowerback 21.8983 2.19611 -0.466285
upperback 6.2533 2.71056 0.373113
thorax -5.42848 1.29359 -0.033736
lowerneck -3.93323 -4.77294 -4.71813
upperneck -9.48214 -6.04042 4.99837
head -2.02665 -2.9977 2.43371
rclavicle 2.3059e-014 -2.14687e-014
rhumerus 27.4652 -17.1954 -34.4411
rradius 38.8807
rwrist -54.089
rhand -13.1283 12.2287
rfingers 7.12502
rthumb 12.9695 -17.3482
lclavicle 2.3059e-014 -2.14687e-014
lhumerus 32.6236 -1.43229 43.4403
lradius 56.5835
lwrist 59.6542
lhand 0.30145 32.6165
lfingers 7.12502
lthumb 25.8791 60.8754
rfemur -43.8875 -0.36652 14.7548
rtibia 51.7972
rfoot -20.2951 -4.00482
rtoes -15.4974
lfemur -41.5953 10.0902 -24.2898
ltibia 53.3228
lfoot -24.1566 9.50582
ltoes -10.7799
2222
root 0.695027 16.8953 -1.87349 11.6278 -11.8226 1.66797
lowerback 22.0391 2.17628 -0.541851
upperback 6.27531 2.66769 0.377807
thorax -5.48008 1.2726 0.0210457
lowerneck -3.66676 -4.67675 -4.74609
upperneck -9.61026 -5.92226 4.95291
head -2.12245 -2.93855 2.43756
rclavicle -1.03368e-014 1.86858e-014
rhumerus 27.8779 -16.5162 -34.6304
rradius 39.0956
rwrist -54.1205
rhand -12.8892 12.2417
rfingers 7.12502
rthumb 13.2 -17.3204
lclavicle -1.03368e-014 1.86858e-014
lhumerus 33.1233 -1.87888 43.5393
lradius 56.6311
lwrist 59.5078
lhand 1.53845 32.4462
lfingers 7.12502
lthumb 27.0631 60.5268
rfemur -44.1558 -0.467872 14.7921
rtibia 52.2007
rfoot -20.3747 -4.12821
rtoes -16.0251
lfemur -41.8806 10.1059 -24.3065
ltibia 53.7156
lfoot -24.2087 9.4394
ltoes -10.9143
2223
root 0.693686 16.8747 -1.88893 11.5915 -11.7271 1.62178
lowerback 22.1354 2.14865 -0.5877
upperback 6.35904 2.62243 0.4094
thorax -5.44169 1.25023 0.0915848
lowerneck -3.45568 -4.58009 -4.88984
upperneck -9.80536 -5.79184 5.01664
head -2.22595 -2.87129 2.4981
rclavicle -1.19271e-015 -9.54166e-015
rhumerus 28.3344 -15.6801 -34.6452
rradius 39.4405
rwrist -54.6448
rhand -12.897 12.3821
rfingers 7.12502
rthumb 13.1925 -17.1805
lclavicle -1.19271e-015 -9.54166e-015
lhumerus 33.654 -2.29073 43.5649
lradius 56.7982
lwrist 59.6202
lhand 2.20232 32.432
lfingers 7.12502
lthumb 27.6981 60.4123
rfemur -44.3727 -0.52915 14.8796
rtibia 52.5905
rfoot -20.4616 -4.17348
rtoes -16.0396
lfemur -42.1197 10.1078 -24.2436
ltibia 54.0934
lfoot -24.3061 9.32629
ltoes -10.8797
2224
root 0.694376 16.8522 -1.90503 11.5996 -11.6372 1.59842
lowerback 22.1895 2.13457 -0.591113
upperback 6.45592 2.60051 0.391185
thorax -5.3632 1.23929 0.080101
lowerneck -3.50211 -4.49751 -4.85518
upperneck -9.82534 -5.6821 4.96416
head -2.23248 -2.8157 2.47398
rclavicle -1.59028e-015 -3.97569e-015
rhumerus 28.7976 -14.9976 -34.7095
rradius 39.7652
rwrist -55.2362
rhand -12.9316 12.4735
rfingers 7.12502
rthumb 13.1591 -17.0912
lclavicle -1.59028e-015 -3.97569e-015
lhumerus 34.3231 -2.72999 43.4985
lradius 56.9522
lwrist 59.6212
lhand 2.80779 32.2236
lfingers 7.12502
lthumb 28.2769 60.1094
rfemur -44.6443 -0.611935 14.9333
rtibia 52.9697
rfoot -20.5678 -4.17405
rtoes -15.8839
lfemur -42.4134 10.0741 -24.2225
ltibia 54.4719
lfoot -24.3796 9.25312
ltoes -10.5198
2225
root 0.69507 16.8285 -1.92143 11.6251 -11.5408 1.63552
lowerback 22.2279 2.15032 -0.604989
upperback 6.53231 2.61236 0.32879
thorax -5.2975 1.24513 0.0182824
lowerneck -3.54193 -4.44551 -4.64316
upperneck -9.85054 -5.62372 4.79945
head -2.24623 -2.78936 2.38137
rclavicle 4.13472e-014 -1.19271e-014
rhumerus 29.2169 -14.5108 -34.8774
rradius 40.0014
rwrist -55.4985
rhand -12.7403 12.4266
rfingers 7.12502
rthumb 13.3435 -17.1262
lclavicle 4.13472e-014 -1.19271e-014
lhumerus 35.0691 -3.263 43.4141
lradius 57.1587
lwrist 59.5843
lhand 3.38509 32.0144
lfingers 7.12502
lthumb 28.8285 59.8076
rfemur -44.9516 -0.714351 14.9197
rtibia 53.3426
rfoot -20.6448 -4.16964
rtoes -15.7638
lfemur -42.7463 10.0347 -24.2771
ltibia 54.8485
lfoot -24.378 9.22844
ltoes -10.5231
2226
root 0.69383 16.8051 -1.93522 11.6588 -11.4432 1.57465
lowerback 22.278 2.16171 -0.554164
upperback 6.59357 2.63538 0.308465
thorax -5.25346 1.25606 -0.0387387
lowerneck -3.50184 -4.41774 -4.58753
upperneck -9.95267 -5.58913 4.76942
head -2.29114 -2.77339 2.36607
rclavicle 1.98785e-015 -5.56597e-015
rhumerus 29.701 -14.0326 -35.0686
rradius 40.2137
rwrist -55.7523
rhand -12.5453 12.2487
rfingers 7.12502
rthumb 13.5315 -17.2916
lclavicle 1.98785e-015 -5.56597e-015
lhumerus 35.7325 -3.81018 43.3509
lradius 57.4076
lwrist 59.7338
lhand 3.71566 31.7165
lfingers 7.12502
lthumb 29.1442 59.4554
rfemur -45.2188 -0.751179 15.0056
rtibia 53.7075
rfoot -20.7513 -4.24456
rtoes -15.6099
lfemur -43.0741 10.0542 -24.2185
ltibia 55.2316
lfoot -24.4192 9.14528
ltoes -10.8273
2227
root 0.694416 16.784 -1.94772 11.654 -11.333 1.48304
lowerback 22.3496 2.16012 -0.456803
upperback 6.67445 2.65365 0.322893
thorax -5.19863 1.26441 -0.0838817
lowerneck -3.48693 -4.38396 -4.68759
upperneck -10.0191 -5.53947 4.80465
head -2.31522 -2.74576 2.39807
rclavicle -7.55382e-015 -3.97569e-015
rhumerus 30.2385 -13.5346 -35.2044
rradius 40.3804
rwrist -55.988
rhand -12.4151 12.1541
rfingers 7.12502
rthumb 13.657 -17.3778
lclavicle -7.55382e-015 -3.97569e-015
lhumerus 36.3679 -4.3132 43.2951
lradius 57.7044
lwrist 60.056
lhand 3.82151 31.4961
lfingers 7.12502
lthumb 29.2453 59.2174
rfemur -45.4118 -0.82388 15.1316
rtibia 54.0631
rfoot -20.9004 -4.32177
rtoes -15.6977
lfemur -43.3302 10.0634 -24.1235
ltibia 55.6084
lfoot -24.5018 9.01517
ltoes -10.7274
